<mxfile host="drawio-plugin" modified="2022-04-17T09:31:45.593Z" agent="5.0 (Windows NT 6.2; Win64; x64) AppleWebKit/537.36 (KHTML, like Gecko) Chrome/89.0.4389.114 Safari/537.36" etag="iB90ZOJszCanA2LSFD_Q" version="15.5.4" type="embed"><diagram id="C5RBs43oDa-KdzZeNtuy" name="Page-1"><mxGraphModel dx="1865" dy="1717" grid="1" gridSize="10" guides="1" tooltips="1" connect="1" arrows="1" fold="1" page="1" pageScale="1" pageWidth="827" pageHeight="1169" math="0" shadow="0"><root><mxCell id="WIyWlLk6GJQsqaUBKTNV-0"/><mxCell id="WIyWlLk6GJQsqaUBKTNV-1" parent="WIyWlLk6GJQsqaUBKTNV-0"/><mxCell id="zkfFHV4jXpPFQw0GAbJ--0" value="Client" style="swimlane;fontStyle=2;align=center;verticalAlign=top;childLayout=stackLayout;horizontal=1;startSize=26;horizontalStack=0;resizeParent=1;resizeLast=0;collapsible=1;marginBottom=0;rounded=0;shadow=0;strokeWidth=1;" parent="WIyWlLk6GJQsqaUBKTNV-1" vertex="1"><mxGeometry x="210" y="40" width="160" height="190" as="geometry"><mxRectangle x="230" y="140" width="160" height="26" as="alternateBounds"/></mxGeometry></mxCell><mxCell id="zkfFHV4jXpPFQw0GAbJ--1" value="name : str" style="text;align=left;verticalAlign=top;spacingLeft=4;spacingRight=4;overflow=hidden;rotatable=0;points=[[0,0.5],[1,0.5]];portConstraint=eastwest;" parent="zkfFHV4jXpPFQw0GAbJ--0" vertex="1"><mxGeometry y="26" width="160" height="26" as="geometry"/></mxCell><mxCell id="zkfFHV4jXpPFQw0GAbJ--2" value="surname : str" style="text;align=left;verticalAlign=top;spacingLeft=4;spacingRight=4;overflow=hidden;rotatable=0;points=[[0,0.5],[1,0.5]];portConstraint=eastwest;rounded=0;shadow=0;html=0;" parent="zkfFHV4jXpPFQw0GAbJ--0" vertex="1"><mxGeometry y="52" width="160" height="26" as="geometry"/></mxCell><mxCell id="zkfFHV4jXpPFQw0GAbJ--3" value="address : Address" style="text;align=left;verticalAlign=top;spacingLeft=4;spacingRight=4;overflow=hidden;rotatable=0;points=[[0,0.5],[1,0.5]];portConstraint=eastwest;rounded=0;shadow=0;html=0;" parent="zkfFHV4jXpPFQw0GAbJ--0" vertex="1"><mxGeometry y="78" width="160" height="26" as="geometry"/></mxCell><mxCell id="zaFwo0IHeLKlWYsPAoZ0-1" value="id_number : int" style="text;align=left;verticalAlign=top;spacingLeft=4;spacingRight=4;overflow=hidden;rotatable=0;points=[[0,0.5],[1,0.5]];portConstraint=eastwest;rounded=0;shadow=0;html=0;" parent="zkfFHV4jXpPFQw0GAbJ--0" vertex="1"><mxGeometry y="104" width="160" height="26" as="geometry"/></mxCell><mxCell id="8kIhBD2BF5X6gOVt8awM-36" value="is_verified : bool" style="text;align=left;verticalAlign=top;spacingLeft=4;spacingRight=4;overflow=hidden;rotatable=0;points=[[0,0.5],[1,0.5]];portConstraint=eastwest;rounded=0;shadow=0;html=0;" parent="zkfFHV4jXpPFQw0GAbJ--0" vertex="1"><mxGeometry y="130" width="160" height="26" as="geometry"/></mxCell><mxCell id="zkfFHV4jXpPFQw0GAbJ--4" value="" style="line;html=1;strokeWidth=1;align=left;verticalAlign=middle;spacingTop=-1;spacingLeft=3;spacingRight=3;rotatable=0;labelPosition=right;points=[];portConstraint=eastwest;" parent="zkfFHV4jXpPFQw0GAbJ--0" vertex="1"><mxGeometry y="156" width="160" height="8" as="geometry"/></mxCell><mxCell id="zkfFHV4jXpPFQw0GAbJ--5" value="try_verify()" style="text;align=left;verticalAlign=top;spacingLeft=4;spacingRight=4;overflow=hidden;rotatable=0;points=[[0,0.5],[1,0.5]];portConstraint=eastwest;" parent="zkfFHV4jXpPFQw0GAbJ--0" vertex="1"><mxGeometry y="164" width="160" height="26" as="geometry"/></mxCell><mxCell id="zkfFHV4jXpPFQw0GAbJ--17" value="Address" style="swimlane;fontStyle=0;align=center;verticalAlign=top;childLayout=stackLayout;horizontal=1;startSize=26;horizontalStack=0;resizeParent=1;resizeLast=0;collapsible=1;marginBottom=0;rounded=0;shadow=0;strokeWidth=1;" parent="WIyWlLk6GJQsqaUBKTNV-1" vertex="1"><mxGeometry x="508" y="40" width="160" height="190" as="geometry"><mxRectangle x="550" y="140" width="160" height="26" as="alternateBounds"/></mxGeometry></mxCell><mxCell id="zkfFHV4jXpPFQw0GAbJ--18" value="street : str" style="text;align=left;verticalAlign=top;spacingLeft=4;spacingRight=4;overflow=hidden;rotatable=0;points=[[0,0.5],[1,0.5]];portConstraint=eastwest;" parent="zkfFHV4jXpPFQw0GAbJ--17" vertex="1"><mxGeometry y="26" width="160" height="26" as="geometry"/></mxCell><mxCell id="zkfFHV4jXpPFQw0GAbJ--19" value="city : str" style="text;align=left;verticalAlign=top;spacingLeft=4;spacingRight=4;overflow=hidden;rotatable=0;points=[[0,0.5],[1,0.5]];portConstraint=eastwest;rounded=0;shadow=0;html=0;" parent="zkfFHV4jXpPFQw0GAbJ--17" vertex="1"><mxGeometry y="52" width="160" height="26" as="geometry"/></mxCell><mxCell id="zkfFHV4jXpPFQw0GAbJ--20" value="region : str" style="text;align=left;verticalAlign=top;spacingLeft=4;spacingRight=4;overflow=hidden;rotatable=0;points=[[0,0.5],[1,0.5]];portConstraint=eastwest;rounded=0;shadow=0;html=0;" parent="zkfFHV4jXpPFQw0GAbJ--17" vertex="1"><mxGeometry y="78" width="160" height="26" as="geometry"/></mxCell><mxCell id="zkfFHV4jXpPFQw0GAbJ--21" value="postal_code : int" style="text;align=left;verticalAlign=top;spacingLeft=4;spacingRight=4;overflow=hidden;rotatable=0;points=[[0,0.5],[1,0.5]];portConstraint=eastwest;rounded=0;shadow=0;html=0;" parent="zkfFHV4jXpPFQw0GAbJ--17" vertex="1"><mxGeometry y="104" width="160" height="26" as="geometry"/></mxCell><mxCell id="zkfFHV4jXpPFQw0GAbJ--22" value="country : int" style="text;align=left;verticalAlign=top;spacingLeft=4;spacingRight=4;overflow=hidden;rotatable=0;points=[[0,0.5],[1,0.5]];portConstraint=eastwest;rounded=0;shadow=0;html=0;" parent="zkfFHV4jXpPFQw0GAbJ--17" vertex="1"><mxGeometry y="130" width="160" height="26" as="geometry"/></mxCell><mxCell id="zkfFHV4jXpPFQw0GAbJ--23" value="" style="line;html=1;strokeWidth=1;align=left;verticalAlign=middle;spacingTop=-1;spacingLeft=3;spacingRight=3;rotatable=0;labelPosition=right;points=[];portConstraint=eastwest;" parent="zkfFHV4jXpPFQw0GAbJ--17" vertex="1"><mxGeometry y="156" width="160" height="8" as="geometry"/></mxCell><mxCell id="zkfFHV4jXpPFQw0GAbJ--24" value="validate() -&gt; bool" style="text;align=left;verticalAlign=top;spacingLeft=4;spacingRight=4;overflow=hidden;rotatable=0;points=[[0,0.5],[1,0.5]];portConstraint=eastwest;" parent="zkfFHV4jXpPFQw0GAbJ--17" vertex="1"><mxGeometry y="164" width="160" height="26" as="geometry"/></mxCell><mxCell id="zkfFHV4jXpPFQw0GAbJ--26" value="" style="endArrow=open;shadow=0;strokeWidth=1;rounded=0;endFill=1;edgeStyle=elbowEdgeStyle;elbow=vertical;" parent="WIyWlLk6GJQsqaUBKTNV-1" source="zkfFHV4jXpPFQw0GAbJ--0" target="zkfFHV4jXpPFQw0GAbJ--17" edge="1"><mxGeometry x="0.5" y="41" relative="1" as="geometry"><mxPoint x="380" y="192" as="sourcePoint"/><mxPoint x="540" y="192" as="targetPoint"/><mxPoint x="-40" y="32" as="offset"/></mxGeometry></mxCell><mxCell id="zkfFHV4jXpPFQw0GAbJ--27" value="0..1" style="resizable=0;align=left;verticalAlign=bottom;labelBackgroundColor=none;fontSize=12;" parent="zkfFHV4jXpPFQw0GAbJ--26" connectable="0" vertex="1"><mxGeometry x="-1" relative="1" as="geometry"><mxPoint y="4" as="offset"/></mxGeometry></mxCell><mxCell id="zkfFHV4jXpPFQw0GAbJ--28" value="1" style="resizable=0;align=right;verticalAlign=bottom;labelBackgroundColor=none;fontSize=12;" parent="zkfFHV4jXpPFQw0GAbJ--26" connectable="0" vertex="1"><mxGeometry x="1" relative="1" as="geometry"><mxPoint x="-7" y="4" as="offset"/></mxGeometry></mxCell><mxCell id="zkfFHV4jXpPFQw0GAbJ--29" value="lives at" style="text;html=1;resizable=0;points=[];;align=center;verticalAlign=middle;labelBackgroundColor=none;rounded=0;shadow=0;strokeWidth=1;fontSize=12;" parent="zkfFHV4jXpPFQw0GAbJ--26" vertex="1" connectable="0"><mxGeometry x="0.5" y="49" relative="1" as="geometry"><mxPoint x="-38" y="40" as="offset"/></mxGeometry></mxCell><mxCell id="zaFwo0IHeLKlWYsPAoZ0-2" value="Account (Interface)" style="swimlane;fontStyle=2;align=center;verticalAlign=top;childLayout=stackLayout;horizontal=1;startSize=26;horizontalStack=0;resizeParent=1;resizeLast=0;collapsible=1;marginBottom=0;rounded=0;shadow=0;strokeWidth=1;" parent="WIyWlLk6GJQsqaUBKTNV-1" vertex="1"><mxGeometry x="150" y="330" width="220" height="242" as="geometry"><mxRectangle x="230" y="140" width="160" height="26" as="alternateBounds"/></mxGeometry></mxCell><mxCell id="zaFwo0IHeLKlWYsPAoZ0-3" value="id : int" style="text;align=left;verticalAlign=top;spacingLeft=4;spacingRight=4;overflow=hidden;rotatable=0;points=[[0,0.5],[1,0.5]];portConstraint=eastwest;" parent="zaFwo0IHeLKlWYsPAoZ0-2" vertex="1"><mxGeometry y="26" width="220" height="26" as="geometry"/></mxCell><mxCell id="8kIhBD2BF5X6gOVt8awM-78" value="bank : Bank" style="text;align=left;verticalAlign=top;spacingLeft=4;spacingRight=4;overflow=hidden;rotatable=0;points=[[0,0.5],[1,0.5]];portConstraint=eastwest;rounded=0;shadow=0;html=0;" parent="zaFwo0IHeLKlWYsPAoZ0-2" vertex="1"><mxGeometry y="52" width="220" height="26" as="geometry"/></mxCell><mxCell id="zaFwo0IHeLKlWYsPAoZ0-5" value="balance : int" style="text;align=left;verticalAlign=top;spacingLeft=4;spacingRight=4;overflow=hidden;rotatable=0;points=[[0,0.5],[1,0.5]];portConstraint=eastwest;rounded=0;shadow=0;html=0;" parent="zaFwo0IHeLKlWYsPAoZ0-2" vertex="1"><mxGeometry y="78" width="220" height="26" as="geometry"/></mxCell><mxCell id="zaFwo0IHeLKlWYsPAoZ0-6" value="id_number : int" style="text;align=left;verticalAlign=top;spacingLeft=4;spacingRight=4;overflow=hidden;rotatable=0;points=[[0,0.5],[1,0.5]];portConstraint=eastwest;rounded=0;shadow=0;html=0;" parent="zaFwo0IHeLKlWYsPAoZ0-2" vertex="1"><mxGeometry y="104" width="220" height="26" as="geometry"/></mxCell><mxCell id="8kIhBD2BF5X6gOVt8awM-2" value="last_updated: Date" style="text;align=left;verticalAlign=top;spacingLeft=4;spacingRight=4;overflow=hidden;rotatable=0;points=[[0,0.5],[1,0.5]];portConstraint=eastwest;rounded=0;shadow=0;html=0;" parent="zaFwo0IHeLKlWYsPAoZ0-2" vertex="1"><mxGeometry y="130" width="220" height="26" as="geometry"/></mxCell><mxCell id="zaFwo0IHeLKlWYsPAoZ0-7" value="" style="line;html=1;strokeWidth=1;align=left;verticalAlign=middle;spacingTop=-1;spacingLeft=3;spacingRight=3;rotatable=0;labelPosition=right;points=[];portConstraint=eastwest;" parent="zaFwo0IHeLKlWYsPAoZ0-2" vertex="1"><mxGeometry y="156" width="220" height="8" as="geometry"/></mxCell><mxCell id="zaFwo0IHeLKlWYsPAoZ0-8" value="add_money(amount : int) -&gt; bool" style="text;align=left;verticalAlign=top;spacingLeft=4;spacingRight=4;overflow=hidden;rotatable=0;points=[[0,0.5],[1,0.5]];portConstraint=eastwest;" parent="zaFwo0IHeLKlWYsPAoZ0-2" vertex="1"><mxGeometry y="164" width="220" height="26" as="geometry"/></mxCell><mxCell id="zaFwo0IHeLKlWYsPAoZ0-9" value="substract_money(amount : int) -&gt; bool" style="text;align=left;verticalAlign=top;spacingLeft=4;spacingRight=4;overflow=hidden;rotatable=0;points=[[0,0.5],[1,0.5]];portConstraint=eastwest;" parent="zaFwo0IHeLKlWYsPAoZ0-2" vertex="1"><mxGeometry y="190" width="220" height="26" as="geometry"/></mxCell><mxCell id="8kIhBD2BF5X6gOVt8awM-3" value="recalculate_day() -&gt; Transaction" style="text;align=left;verticalAlign=top;spacingLeft=4;spacingRight=4;overflow=hidden;rotatable=0;points=[[0,0.5],[1,0.5]];portConstraint=eastwest;" parent="zaFwo0IHeLKlWYsPAoZ0-2" vertex="1"><mxGeometry y="216" width="220" height="26" as="geometry"/></mxCell><mxCell id="zaFwo0IHeLKlWYsPAoZ0-10" value="DepositAccount" style="swimlane;fontStyle=1;align=center;verticalAlign=top;childLayout=stackLayout;horizontal=1;startSize=26;horizontalStack=0;resizeParent=1;resizeParentMax=0;resizeLast=0;collapsible=1;marginBottom=0;" parent="WIyWlLk6GJQsqaUBKTNV-1" vertex="1"><mxGeometry x="-30" y="760" width="160" height="60" as="geometry"/></mxCell><mxCell id="zaFwo0IHeLKlWYsPAoZ0-11" value="rate: float" style="text;strokeColor=none;fillColor=none;align=left;verticalAlign=top;spacingLeft=4;spacingRight=4;overflow=hidden;rotatable=0;points=[[0,0.5],[1,0.5]];portConstraint=eastwest;" parent="zaFwo0IHeLKlWYsPAoZ0-10" vertex="1"><mxGeometry y="26" width="160" height="26" as="geometry"/></mxCell><mxCell id="zaFwo0IHeLKlWYsPAoZ0-12" value="" style="line;strokeWidth=1;fillColor=none;align=left;verticalAlign=middle;spacingTop=-1;spacingLeft=3;spacingRight=3;rotatable=0;labelPosition=right;points=[];portConstraint=eastwest;" parent="zaFwo0IHeLKlWYsPAoZ0-10" vertex="1"><mxGeometry y="52" width="160" height="8" as="geometry"/></mxCell><mxCell id="8kIhBD2BF5X6gOVt8awM-4" value="CreditAccount" style="swimlane;fontStyle=1;align=center;verticalAlign=top;childLayout=stackLayout;horizontal=1;startSize=26;horizontalStack=0;resizeParent=1;resizeParentMax=0;resizeLast=0;collapsible=1;marginBottom=0;" parent="WIyWlLk6GJQsqaUBKTNV-1" vertex="1"><mxGeometry x="190" y="760" width="160" height="86" as="geometry"/></mxCell><mxCell id="8kIhBD2BF5X6gOVt8awM-5" value="fee: int" style="text;strokeColor=none;fillColor=none;align=left;verticalAlign=top;spacingLeft=4;spacingRight=4;overflow=hidden;rotatable=0;points=[[0,0.5],[1,0.5]];portConstraint=eastwest;" parent="8kIhBD2BF5X6gOVt8awM-4" vertex="1"><mxGeometry y="26" width="160" height="26" as="geometry"/></mxCell><mxCell id="8kIhBD2BF5X6gOVt8awM-66" value="limit: int" style="text;strokeColor=none;fillColor=none;align=left;verticalAlign=top;spacingLeft=4;spacingRight=4;overflow=hidden;rotatable=0;points=[[0,0.5],[1,0.5]];portConstraint=eastwest;" parent="8kIhBD2BF5X6gOVt8awM-4" vertex="1"><mxGeometry y="52" width="160" height="26" as="geometry"/></mxCell><mxCell id="8kIhBD2BF5X6gOVt8awM-6" value="" style="line;strokeWidth=1;fillColor=none;align=left;verticalAlign=middle;spacingTop=-1;spacingLeft=3;spacingRight=3;rotatable=0;labelPosition=right;points=[];portConstraint=eastwest;" parent="8kIhBD2BF5X6gOVt8awM-4" vertex="1"><mxGeometry y="78" width="160" height="8" as="geometry"/></mxCell><mxCell id="8kIhBD2BF5X6gOVt8awM-8" value="DebitAccount" style="swimlane;fontStyle=1;align=center;verticalAlign=top;childLayout=stackLayout;horizontal=1;startSize=26;horizontalStack=0;resizeParent=1;resizeParentMax=0;resizeLast=0;collapsible=1;marginBottom=0;" parent="WIyWlLk6GJQsqaUBKTNV-1" vertex="1"><mxGeometry x="390" y="760" width="160" height="60" as="geometry"/></mxCell><mxCell id="8kIhBD2BF5X6gOVt8awM-9" value="fee: int" style="text;strokeColor=none;fillColor=none;align=left;verticalAlign=top;spacingLeft=4;spacingRight=4;overflow=hidden;rotatable=0;points=[[0,0.5],[1,0.5]];portConstraint=eastwest;" parent="8kIhBD2BF5X6gOVt8awM-8" vertex="1"><mxGeometry y="26" width="160" height="26" as="geometry"/></mxCell><mxCell id="8kIhBD2BF5X6gOVt8awM-10" value="" style="line;strokeWidth=1;fillColor=none;align=left;verticalAlign=middle;spacingTop=-1;spacingLeft=3;spacingRight=3;rotatable=0;labelPosition=right;points=[];portConstraint=eastwest;" parent="8kIhBD2BF5X6gOVt8awM-8" vertex="1"><mxGeometry y="52" width="160" height="8" as="geometry"/></mxCell><mxCell id="8kIhBD2BF5X6gOVt8awM-11" value="UtilityAccount" style="swimlane;fontStyle=1;align=center;verticalAlign=top;childLayout=stackLayout;horizontal=1;startSize=26;horizontalStack=0;resizeParent=1;resizeParentMax=0;resizeLast=0;collapsible=1;marginBottom=0;" parent="WIyWlLk6GJQsqaUBKTNV-1" vertex="1"><mxGeometry x="580" y="760" width="160" height="34" as="geometry"/></mxCell><mxCell id="8kIhBD2BF5X6gOVt8awM-13" value="" style="line;strokeWidth=1;fillColor=none;align=left;verticalAlign=middle;spacingTop=-1;spacingLeft=3;spacingRight=3;rotatable=0;labelPosition=right;points=[];portConstraint=eastwest;" parent="8kIhBD2BF5X6gOVt8awM-11" vertex="1"><mxGeometry y="26" width="160" height="8" as="geometry"/></mxCell><mxCell id="8kIhBD2BF5X6gOVt8awM-16" value="" style="endArrow=block;dashed=1;endFill=0;endSize=12;html=1;rounded=0;entryX=0.415;entryY=1.202;entryDx=0;entryDy=0;entryPerimeter=0;edgeStyle=orthogonalEdgeStyle;exitX=0.5;exitY=0;exitDx=0;exitDy=0;" parent="WIyWlLk6GJQsqaUBKTNV-1" source="zaFwo0IHeLKlWYsPAoZ0-10" target="8kIhBD2BF5X6gOVt8awM-3" edge="1"><mxGeometry width="160" relative="1" as="geometry"><mxPoint x="60" y="730" as="sourcePoint"/><mxPoint x="290" y="720" as="targetPoint"/><Array as="points"><mxPoint x="50" y="730"/><mxPoint x="241" y="730"/></Array></mxGeometry></mxCell><mxCell id="8kIhBD2BF5X6gOVt8awM-24" value="" style="endArrow=block;dashed=1;endFill=0;endSize=12;html=1;rounded=0;edgeStyle=orthogonalEdgeStyle;exitX=0.5;exitY=0;exitDx=0;exitDy=0;entryX=0.498;entryY=1.155;entryDx=0;entryDy=0;entryPerimeter=0;" parent="WIyWlLk6GJQsqaUBKTNV-1" source="8kIhBD2BF5X6gOVt8awM-4" target="8kIhBD2BF5X6gOVt8awM-3" edge="1"><mxGeometry width="160" relative="1" as="geometry"><mxPoint x="60" y="770" as="sourcePoint"/><mxPoint x="280" y="660" as="targetPoint"/><Array as="points"><mxPoint x="260" y="760"/></Array></mxGeometry></mxCell><mxCell id="8kIhBD2BF5X6gOVt8awM-25" value="" style="endArrow=block;dashed=1;endFill=0;endSize=12;html=1;rounded=0;edgeStyle=orthogonalEdgeStyle;entryX=0.658;entryY=1.137;entryDx=0;entryDy=0;entryPerimeter=0;exitX=0.453;exitY=-0.067;exitDx=0;exitDy=0;exitPerimeter=0;" parent="WIyWlLk6GJQsqaUBKTNV-1" source="8kIhBD2BF5X6gOVt8awM-8" target="8kIhBD2BF5X6gOVt8awM-3" edge="1"><mxGeometry width="160" relative="1" as="geometry"><mxPoint x="460" y="720" as="sourcePoint"/><mxPoint x="269.55999999999995" y="632.03" as="targetPoint"/><Array as="points"><mxPoint x="460" y="756"/><mxPoint x="460" y="710"/><mxPoint x="295" y="710"/></Array></mxGeometry></mxCell><mxCell id="8kIhBD2BF5X6gOVt8awM-26" value="" style="endArrow=block;dashed=1;endFill=0;endSize=12;html=1;rounded=0;edgeStyle=orthogonalEdgeStyle;entryX=0.795;entryY=1.014;entryDx=0;entryDy=0;entryPerimeter=0;" parent="WIyWlLk6GJQsqaUBKTNV-1" target="8kIhBD2BF5X6gOVt8awM-3" edge="1"><mxGeometry width="160" relative="1" as="geometry"><mxPoint x="660" y="760" as="sourcePoint"/><mxPoint x="304.7600000000002" y="631.5619999999999" as="targetPoint"/><Array as="points"><mxPoint x="660" y="690"/><mxPoint x="325" y="690"/></Array></mxGeometry></mxCell><mxCell id="8kIhBD2BF5X6gOVt8awM-27" value="Bank" style="swimlane;fontStyle=2;align=center;verticalAlign=top;childLayout=stackLayout;horizontal=1;startSize=26;horizontalStack=0;resizeParent=1;resizeLast=0;collapsible=1;marginBottom=0;rounded=0;shadow=0;strokeWidth=1;" parent="WIyWlLk6GJQsqaUBKTNV-1" vertex="1"><mxGeometry x="-180" y="53" width="220" height="346" as="geometry"><mxRectangle x="230" y="140" width="160" height="26" as="alternateBounds"/></mxGeometry></mxCell><mxCell id="8kIhBD2BF5X6gOVt8awM-28" value="name : str" style="text;align=left;verticalAlign=top;spacingLeft=4;spacingRight=4;overflow=hidden;rotatable=0;points=[[0,0.5],[1,0.5]];portConstraint=eastwest;" parent="8kIhBD2BF5X6gOVt8awM-27" vertex="1"><mxGeometry y="26" width="220" height="26" as="geometry"/></mxCell><mxCell id="8kIhBD2BF5X6gOVt8awM-29" value="id : int" style="text;align=left;verticalAlign=top;spacingLeft=4;spacingRight=4;overflow=hidden;rotatable=0;points=[[0,0.5],[1,0.5]];portConstraint=eastwest;rounded=0;shadow=0;html=0;" parent="8kIhBD2BF5X6gOVt8awM-27" vertex="1"><mxGeometry y="52" width="220" height="26" as="geometry"/></mxCell><mxCell id="8kIhBD2BF5X6gOVt8awM-46" value="all_clients : dict(Client)&#10;" style="text;align=left;verticalAlign=top;spacingLeft=4;spacingRight=4;overflow=hidden;rotatable=0;points=[[0,0.5],[1,0.5]];portConstraint=eastwest;rounded=0;shadow=0;html=0;" parent="8kIhBD2BF5X6gOVt8awM-27" vertex="1"><mxGeometry y="78" width="220" height="26" as="geometry"/></mxCell><mxCell id="8kIhBD2BF5X6gOVt8awM-47" value="all_accouints : dict(Account)" style="text;align=left;verticalAlign=top;spacingLeft=4;spacingRight=4;overflow=hidden;rotatable=0;points=[[0,0.5],[1,0.5]];portConstraint=eastwest;rounded=0;shadow=0;html=0;" parent="8kIhBD2BF5X6gOVt8awM-27" vertex="1"><mxGeometry y="104" width="220" height="26" as="geometry"/></mxCell><mxCell id="8kIhBD2BF5X6gOVt8awM-88" value="bank_manager: BankManager" style="text;align=left;verticalAlign=top;spacingLeft=4;spacingRight=4;overflow=hidden;rotatable=0;points=[[0,0.5],[1,0.5]];portConstraint=eastwest;rounded=0;shadow=0;html=0;" parent="8kIhBD2BF5X6gOVt8awM-27" vertex="1"><mxGeometry y="130" width="220" height="26" as="geometry"/></mxCell><mxCell id="8kIhBD2BF5X6gOVt8awM-79" value="bank_account : UtilityAccount" style="text;align=left;verticalAlign=top;spacingLeft=4;spacingRight=4;overflow=hidden;rotatable=0;points=[[0,0.5],[1,0.5]];portConstraint=eastwest;rounded=0;shadow=0;html=0;" parent="8kIhBD2BF5X6gOVt8awM-27" vertex="1"><mxGeometry y="156" width="220" height="26" as="geometry"/></mxCell><mxCell id="8kIhBD2BF5X6gOVt8awM-80" value="cash_account : UtilityAccount" style="text;align=left;verticalAlign=top;spacingLeft=4;spacingRight=4;overflow=hidden;rotatable=0;points=[[0,0.5],[1,0.5]];portConstraint=eastwest;rounded=0;shadow=0;html=0;" parent="8kIhBD2BF5X6gOVt8awM-27" vertex="1"><mxGeometry y="182" width="220" height="26" as="geometry"/></mxCell><mxCell id="8kIhBD2BF5X6gOVt8awM-81" value="atms : list(ATM)" style="text;align=left;verticalAlign=top;spacingLeft=4;spacingRight=4;overflow=hidden;rotatable=0;points=[[0,0.5],[1,0.5]];portConstraint=eastwest;rounded=0;shadow=0;html=0;" parent="8kIhBD2BF5X6gOVt8awM-27" vertex="1"><mxGeometry y="208" width="220" height="26" as="geometry"/></mxCell><mxCell id="8kIhBD2BF5X6gOVt8awM-32" value="" style="line;html=1;strokeWidth=1;align=left;verticalAlign=middle;spacingTop=-1;spacingLeft=3;spacingRight=3;rotatable=0;labelPosition=right;points=[];portConstraint=eastwest;" parent="8kIhBD2BF5X6gOVt8awM-27" vertex="1"><mxGeometry y="234" width="220" height="8" as="geometry"/></mxCell><mxCell id="8kIhBD2BF5X6gOVt8awM-33" value="get_account(id) -&gt; Account" style="text;align=left;verticalAlign=top;spacingLeft=4;spacingRight=4;overflow=hidden;rotatable=0;points=[[0,0.5],[1,0.5]];portConstraint=eastwest;" parent="8kIhBD2BF5X6gOVt8awM-27" vertex="1"><mxGeometry y="242" width="220" height="26" as="geometry"/></mxCell><mxCell id="8kIhBD2BF5X6gOVt8awM-34" value="add_client(client)" style="text;align=left;verticalAlign=top;spacingLeft=4;spacingRight=4;overflow=hidden;rotatable=0;points=[[0,0.5],[1,0.5]];portConstraint=eastwest;" parent="8kIhBD2BF5X6gOVt8awM-27" vertex="1"><mxGeometry y="268" width="220" height="26" as="geometry"/></mxCell><mxCell id="8kIhBD2BF5X6gOVt8awM-37" value="search_client(name, surname)" style="text;align=left;verticalAlign=top;spacingLeft=4;spacingRight=4;overflow=hidden;rotatable=0;points=[[0,0.5],[1,0.5]];portConstraint=eastwest;" parent="8kIhBD2BF5X6gOVt8awM-27" vertex="1"><mxGeometry y="294" width="220" height="26" as="geometry"/></mxCell><mxCell id="8kIhBD2BF5X6gOVt8awM-67" value="recalculate_day() -&gt; list(Transaction)" style="text;align=left;verticalAlign=top;spacingLeft=4;spacingRight=4;overflow=hidden;rotatable=0;points=[[0,0.5],[1,0.5]];portConstraint=eastwest;" parent="8kIhBD2BF5X6gOVt8awM-27" vertex="1"><mxGeometry y="320" width="220" height="26" as="geometry"/></mxCell><mxCell id="8kIhBD2BF5X6gOVt8awM-38" value="BankManager" style="swimlane;fontStyle=2;align=center;verticalAlign=top;childLayout=stackLayout;horizontal=1;startSize=26;horizontalStack=0;resizeParent=1;resizeLast=0;collapsible=1;marginBottom=0;rounded=0;shadow=0;strokeWidth=1;" parent="WIyWlLk6GJQsqaUBKTNV-1" vertex="1"><mxGeometry x="-280" y="-170" width="260" height="164" as="geometry"><mxRectangle x="230" y="140" width="160" height="26" as="alternateBounds"/></mxGeometry></mxCell><mxCell id="8kIhBD2BF5X6gOVt8awM-39" value="all_banks : dict(Bank)" style="text;align=left;verticalAlign=top;spacingLeft=4;spacingRight=4;overflow=hidden;rotatable=0;points=[[0,0.5],[1,0.5]];portConstraint=eastwest;" parent="8kIhBD2BF5X6gOVt8awM-38" vertex="1"><mxGeometry y="26" width="260" height="26" as="geometry"/></mxCell><mxCell id="8kIhBD2BF5X6gOVt8awM-45" value="transaction_history : list(Transaction)" style="text;align=left;verticalAlign=top;spacingLeft=4;spacingRight=4;overflow=hidden;rotatable=0;points=[[0,0.5],[1,0.5]];portConstraint=eastwest;" parent="8kIhBD2BF5X6gOVt8awM-38" vertex="1"><mxGeometry y="52" width="260" height="26" as="geometry"/></mxCell><mxCell id="8kIhBD2BF5X6gOVt8awM-68" value="recalculation_manager : RecalculationManager" style="text;align=left;verticalAlign=top;spacingLeft=4;spacingRight=4;overflow=hidden;rotatable=0;points=[[0,0.5],[1,0.5]];portConstraint=eastwest;" parent="8kIhBD2BF5X6gOVt8awM-38" vertex="1"><mxGeometry y="78" width="260" height="26" as="geometry"/></mxCell><mxCell id="8kIhBD2BF5X6gOVt8awM-41" value="" style="line;html=1;strokeWidth=1;align=left;verticalAlign=middle;spacingTop=-1;spacingLeft=3;spacingRight=3;rotatable=0;labelPosition=right;points=[];portConstraint=eastwest;" parent="8kIhBD2BF5X6gOVt8awM-38" vertex="1"><mxGeometry y="104" width="260" height="8" as="geometry"/></mxCell><mxCell id="8kIhBD2BF5X6gOVt8awM-42" value="execute_transaction(Transaction) -&gt; bool" style="text;align=left;verticalAlign=top;spacingLeft=4;spacingRight=4;overflow=hidden;rotatable=0;points=[[0,0.5],[1,0.5]];portConstraint=eastwest;" parent="8kIhBD2BF5X6gOVt8awM-38" vertex="1"><mxGeometry y="112" width="260" height="26" as="geometry"/></mxCell><mxCell id="8kIhBD2BF5X6gOVt8awM-100" value="rollback_transaction(Transaction) -&gt; bool" style="text;align=left;verticalAlign=top;spacingLeft=4;spacingRight=4;overflow=hidden;rotatable=0;points=[[0,0.5],[1,0.5]];portConstraint=eastwest;" parent="8kIhBD2BF5X6gOVt8awM-38" vertex="1"><mxGeometry y="138" width="260" height="26" as="geometry"/></mxCell><mxCell id="8kIhBD2BF5X6gOVt8awM-48" value="Transaction" style="swimlane;fontStyle=2;align=center;verticalAlign=top;childLayout=stackLayout;horizontal=1;startSize=26;horizontalStack=0;resizeParent=1;resizeLast=0;collapsible=1;marginBottom=0;rounded=0;shadow=0;strokeWidth=1;" parent="WIyWlLk6GJQsqaUBKTNV-1" vertex="1"><mxGeometry x="-680" width="240" height="164" as="geometry"><mxRectangle x="230" y="140" width="160" height="26" as="alternateBounds"/></mxGeometry></mxCell><mxCell id="8kIhBD2BF5X6gOVt8awM-49" value="id : int" style="text;align=left;verticalAlign=top;spacingLeft=4;spacingRight=4;overflow=hidden;rotatable=0;points=[[0,0.5],[1,0.5]];portConstraint=eastwest;" parent="8kIhBD2BF5X6gOVt8awM-48" vertex="1"><mxGeometry y="26" width="240" height="26" as="geometry"/></mxCell><mxCell id="8kIhBD2BF5X6gOVt8awM-53" value="bank_from_id : int&#10;" style="text;align=left;verticalAlign=top;spacingLeft=4;spacingRight=4;overflow=hidden;rotatable=0;points=[[0,0.5],[1,0.5]];portConstraint=eastwest;" parent="8kIhBD2BF5X6gOVt8awM-48" vertex="1"><mxGeometry y="52" width="240" height="26" as="geometry"/></mxCell><mxCell id="8kIhBD2BF5X6gOVt8awM-54" value="bank_to_id : int" style="text;align=left;verticalAlign=top;spacingLeft=4;spacingRight=4;overflow=hidden;rotatable=0;points=[[0,0.5],[1,0.5]];portConstraint=eastwest;" parent="8kIhBD2BF5X6gOVt8awM-48" vertex="1"><mxGeometry y="78" width="240" height="26" as="geometry"/></mxCell><mxCell id="8kIhBD2BF5X6gOVt8awM-55" value="account_from_id : int" style="text;align=left;verticalAlign=top;spacingLeft=4;spacingRight=4;overflow=hidden;rotatable=0;points=[[0,0.5],[1,0.5]];portConstraint=eastwest;" parent="8kIhBD2BF5X6gOVt8awM-48" vertex="1"><mxGeometry y="104" width="240" height="26" as="geometry"/></mxCell><mxCell id="8kIhBD2BF5X6gOVt8awM-77" value="account_to_id : int" style="text;align=left;verticalAlign=top;spacingLeft=4;spacingRight=4;overflow=hidden;rotatable=0;points=[[0,0.5],[1,0.5]];portConstraint=eastwest;" parent="8kIhBD2BF5X6gOVt8awM-48" vertex="1"><mxGeometry y="130" width="240" height="26" as="geometry"/></mxCell><mxCell id="8kIhBD2BF5X6gOVt8awM-51" value="" style="line;html=1;strokeWidth=1;align=left;verticalAlign=middle;spacingTop=-1;spacingLeft=3;spacingRight=3;rotatable=0;labelPosition=right;points=[];portConstraint=eastwest;" parent="8kIhBD2BF5X6gOVt8awM-48" vertex="1"><mxGeometry y="156" width="240" height="8" as="geometry"/></mxCell><mxCell id="8kIhBD2BF5X6gOVt8awM-56" value="" style="endArrow=open;shadow=0;strokeWidth=1;rounded=0;endFill=1;elbow=vertical;exitX=1;exitY=0.5;exitDx=0;exitDy=0;" parent="WIyWlLk6GJQsqaUBKTNV-1" source="8kIhBD2BF5X6gOVt8awM-46" edge="1"><mxGeometry x="0.5" y="41" relative="1" as="geometry"><mxPoint x="20" y="170" as="sourcePoint"/><mxPoint x="210" y="140" as="targetPoint"/><mxPoint x="-40" y="32" as="offset"/></mxGeometry></mxCell><mxCell id="8kIhBD2BF5X6gOVt8awM-57" value="1" style="resizable=0;align=left;verticalAlign=bottom;labelBackgroundColor=none;fontSize=12;" parent="8kIhBD2BF5X6gOVt8awM-56" connectable="0" vertex="1"><mxGeometry x="-1" relative="1" as="geometry"><mxPoint y="-4" as="offset"/></mxGeometry></mxCell><mxCell id="8kIhBD2BF5X6gOVt8awM-58" value="*" style="resizable=0;align=right;verticalAlign=bottom;labelBackgroundColor=none;fontSize=12;" parent="8kIhBD2BF5X6gOVt8awM-56" connectable="0" vertex="1"><mxGeometry x="1" relative="1" as="geometry"><mxPoint x="-7" y="4" as="offset"/></mxGeometry></mxCell><mxCell id="8kIhBD2BF5X6gOVt8awM-60" value="" style="endArrow=open;shadow=0;strokeWidth=1;rounded=0;endFill=1;elbow=vertical;exitX=1;exitY=0.5;exitDx=0;exitDy=0;entryX=-0.002;entryY=0.052;entryDx=0;entryDy=0;entryPerimeter=0;" parent="WIyWlLk6GJQsqaUBKTNV-1" source="8kIhBD2BF5X6gOVt8awM-47" target="zaFwo0IHeLKlWYsPAoZ0-2" edge="1"><mxGeometry x="0.5" y="41" relative="1" as="geometry"><mxPoint x="10" y="154" as="sourcePoint"/><mxPoint x="220" y="150" as="targetPoint"/><mxPoint x="-40" y="32" as="offset"/></mxGeometry></mxCell><mxCell id="8kIhBD2BF5X6gOVt8awM-61" value="1" style="resizable=0;align=left;verticalAlign=bottom;labelBackgroundColor=none;fontSize=12;" parent="8kIhBD2BF5X6gOVt8awM-60" connectable="0" vertex="1"><mxGeometry x="-1" relative="1" as="geometry"><mxPoint y="-4" as="offset"/></mxGeometry></mxCell><mxCell id="8kIhBD2BF5X6gOVt8awM-62" value="*" style="resizable=0;align=right;verticalAlign=bottom;labelBackgroundColor=none;fontSize=12;" parent="8kIhBD2BF5X6gOVt8awM-60" connectable="0" vertex="1"><mxGeometry x="1" relative="1" as="geometry"><mxPoint x="-7" y="4" as="offset"/></mxGeometry></mxCell><mxCell id="8kIhBD2BF5X6gOVt8awM-63" value="" style="endArrow=open;shadow=0;strokeWidth=1;rounded=0;endFill=1;exitX=1;exitY=0.5;exitDx=0;exitDy=0;edgeStyle=elbowEdgeStyle;elbow=vertical;" parent="WIyWlLk6GJQsqaUBKTNV-1" source="8kIhBD2BF5X6gOVt8awM-39" edge="1"><mxGeometry x="0.5" y="41" relative="1" as="geometry"><mxPoint x="10" y="180" as="sourcePoint"/><mxPoint y="50" as="targetPoint"/><mxPoint x="-40" y="32" as="offset"/><Array as="points"><mxPoint x="10" y="-120"/><mxPoint x="30" y="-30"/></Array></mxGeometry></mxCell><mxCell id="8kIhBD2BF5X6gOVt8awM-64" value="1" style="resizable=0;align=left;verticalAlign=bottom;labelBackgroundColor=none;fontSize=12;" parent="8kIhBD2BF5X6gOVt8awM-63" connectable="0" vertex="1"><mxGeometry x="-1" relative="1" as="geometry"><mxPoint y="-4" as="offset"/></mxGeometry></mxCell><mxCell id="8kIhBD2BF5X6gOVt8awM-65" value="*" style="resizable=0;align=right;verticalAlign=bottom;labelBackgroundColor=none;fontSize=12;" parent="8kIhBD2BF5X6gOVt8awM-63" connectable="0" vertex="1"><mxGeometry x="1" relative="1" as="geometry"><mxPoint x="-7" y="4" as="offset"/></mxGeometry></mxCell><mxCell id="8kIhBD2BF5X6gOVt8awM-69" value="RecalculatiionManager" style="swimlane;fontStyle=2;align=center;verticalAlign=top;childLayout=stackLayout;horizontal=1;startSize=26;horizontalStack=0;resizeParent=1;resizeLast=0;collapsible=1;marginBottom=0;rounded=0;shadow=0;strokeWidth=1;" parent="WIyWlLk6GJQsqaUBKTNV-1" vertex="1"><mxGeometry x="-640" y="-200" width="240" height="112" as="geometry"><mxRectangle x="230" y="140" width="160" height="26" as="alternateBounds"/></mxGeometry></mxCell><mxCell id="8kIhBD2BF5X6gOVt8awM-70" value="bank_manager : BankManager" style="text;align=left;verticalAlign=top;spacingLeft=4;spacingRight=4;overflow=hidden;rotatable=0;points=[[0,0.5],[1,0.5]];portConstraint=eastwest;" parent="8kIhBD2BF5X6gOVt8awM-69" vertex="1"><mxGeometry y="26" width="240" height="26" as="geometry"/></mxCell><mxCell id="8kIhBD2BF5X6gOVt8awM-76" value="current_date : Date" style="text;align=left;verticalAlign=top;spacingLeft=4;spacingRight=4;overflow=hidden;rotatable=0;points=[[0,0.5],[1,0.5]];portConstraint=eastwest;" parent="8kIhBD2BF5X6gOVt8awM-69" vertex="1"><mxGeometry y="52" width="240" height="26" as="geometry"/></mxCell><mxCell id="8kIhBD2BF5X6gOVt8awM-74" value="" style="line;html=1;strokeWidth=1;align=left;verticalAlign=middle;spacingTop=-1;spacingLeft=3;spacingRight=3;rotatable=0;labelPosition=right;points=[];portConstraint=eastwest;" parent="8kIhBD2BF5X6gOVt8awM-69" vertex="1"><mxGeometry y="78" width="240" height="8" as="geometry"/></mxCell><mxCell id="8kIhBD2BF5X6gOVt8awM-75" value="skip_to_date(date : Date) -&gt; bool" style="text;align=left;verticalAlign=top;spacingLeft=4;spacingRight=4;overflow=hidden;rotatable=0;points=[[0,0.5],[1,0.5]];portConstraint=eastwest;" parent="8kIhBD2BF5X6gOVt8awM-69" vertex="1"><mxGeometry y="86" width="240" height="26" as="geometry"/></mxCell><mxCell id="8kIhBD2BF5X6gOVt8awM-82" value="ATM" style="swimlane;fontStyle=2;align=center;verticalAlign=top;childLayout=stackLayout;horizontal=1;startSize=26;horizontalStack=0;resizeParent=1;resizeLast=0;collapsible=1;marginBottom=0;rounded=0;shadow=0;strokeWidth=1;" parent="WIyWlLk6GJQsqaUBKTNV-1" vertex="1"><mxGeometry x="-690" y="220" width="390" height="294" as="geometry"><mxRectangle x="230" y="140" width="160" height="26" as="alternateBounds"/></mxGeometry></mxCell><mxCell id="8kIhBD2BF5X6gOVt8awM-83" value="bank : Bank" style="text;align=left;verticalAlign=top;spacingLeft=4;spacingRight=4;overflow=hidden;rotatable=0;points=[[0,0.5],[1,0.5]];portConstraint=eastwest;" parent="8kIhBD2BF5X6gOVt8awM-82" vertex="1"><mxGeometry y="26" width="390" height="26" as="geometry"/></mxCell><mxCell id="8kIhBD2BF5X6gOVt8awM-89" value="current_user :Client" style="text;align=left;verticalAlign=top;spacingLeft=4;spacingRight=4;overflow=hidden;rotatable=0;points=[[0,0.5],[1,0.5]];portConstraint=eastwest;" parent="8kIhBD2BF5X6gOVt8awM-82" vertex="1"><mxGeometry y="52" width="390" height="26" as="geometry"/></mxCell><mxCell id="8kIhBD2BF5X6gOVt8awM-85" value="" style="line;html=1;strokeWidth=1;align=left;verticalAlign=middle;spacingTop=-1;spacingLeft=3;spacingRight=3;rotatable=0;labelPosition=right;points=[];portConstraint=eastwest;" parent="8kIhBD2BF5X6gOVt8awM-82" vertex="1"><mxGeometry y="78" width="390" height="8" as="geometry"/></mxCell><mxCell id="8kIhBD2BF5X6gOVt8awM-86" value="add_cash(account, amount) -&gt; bool" style="text;align=left;verticalAlign=top;spacingLeft=4;spacingRight=4;overflow=hidden;rotatable=0;points=[[0,0.5],[1,0.5]];portConstraint=eastwest;" parent="8kIhBD2BF5X6gOVt8awM-82" vertex="1"><mxGeometry y="86" width="390" height="26" as="geometry"/></mxCell><mxCell id="8kIhBD2BF5X6gOVt8awM-87" value="get_cash(account, amount) -&gt; bool" style="text;align=left;verticalAlign=top;spacingLeft=4;spacingRight=4;overflow=hidden;rotatable=0;points=[[0,0.5],[1,0.5]];portConstraint=eastwest;" parent="8kIhBD2BF5X6gOVt8awM-82" vertex="1"><mxGeometry y="112" width="390" height="26" as="geometry"/></mxCell><mxCell id="8kIhBD2BF5X6gOVt8awM-90" value="register_client(name : str, currname : str, address, id_number) -&gt; bool" style="text;align=left;verticalAlign=top;spacingLeft=4;spacingRight=4;overflow=hidden;rotatable=0;points=[[0,0.5],[1,0.5]];portConstraint=eastwest;" parent="8kIhBD2BF5X6gOVt8awM-82" vertex="1"><mxGeometry y="138" width="390" height="26" as="geometry"/></mxCell><mxCell id="8kIhBD2BF5X6gOVt8awM-91" value="log_in(name : str, currname : str) -&gt; bool" style="text;align=left;verticalAlign=top;spacingLeft=4;spacingRight=4;overflow=hidden;rotatable=0;points=[[0,0.5],[1,0.5]];portConstraint=eastwest;" parent="8kIhBD2BF5X6gOVt8awM-82" vertex="1"><mxGeometry y="164" width="390" height="26" as="geometry"/></mxCell><mxCell id="8kIhBD2BF5X6gOVt8awM-101" value="add_address(address) -&gt; bool" style="text;align=left;verticalAlign=top;spacingLeft=4;spacingRight=4;overflow=hidden;rotatable=0;points=[[0,0.5],[1,0.5]];portConstraint=eastwest;" parent="8kIhBD2BF5X6gOVt8awM-82" vertex="1"><mxGeometry y="190" width="390" height="26" as="geometry"/></mxCell><mxCell id="8kIhBD2BF5X6gOVt8awM-102" value="add_id_number(id_number) -&gt; bool" style="text;align=left;verticalAlign=top;spacingLeft=4;spacingRight=4;overflow=hidden;rotatable=0;points=[[0,0.5],[1,0.5]];portConstraint=eastwest;" parent="8kIhBD2BF5X6gOVt8awM-82" vertex="1"><mxGeometry y="216" width="390" height="26" as="geometry"/></mxCell><mxCell id="8kIhBD2BF5X6gOVt8awM-92" value="show_account() -&gt; list(Account)" style="text;align=left;verticalAlign=top;spacingLeft=4;spacingRight=4;overflow=hidden;rotatable=0;points=[[0,0.5],[1,0.5]];portConstraint=eastwest;" parent="8kIhBD2BF5X6gOVt8awM-82" vertex="1"><mxGeometry y="242" width="390" height="26" as="geometry"/></mxCell><mxCell id="8kIhBD2BF5X6gOVt8awM-103" value="end_session()" style="text;align=left;verticalAlign=top;spacingLeft=4;spacingRight=4;overflow=hidden;rotatable=0;points=[[0,0.5],[1,0.5]];portConstraint=eastwest;" parent="8kIhBD2BF5X6gOVt8awM-82" vertex="1"><mxGeometry y="268" width="390" height="26" as="geometry"/></mxCell><mxCell id="8kIhBD2BF5X6gOVt8awM-94" value="" style="endArrow=open;shadow=0;strokeWidth=1;rounded=0;endFill=1;elbow=vertical;exitX=0;exitY=0.5;exitDx=0;exitDy=0;entryX=1.002;entryY=0.057;entryDx=0;entryDy=0;entryPerimeter=0;" parent="WIyWlLk6GJQsqaUBKTNV-1" source="8kIhBD2BF5X6gOVt8awM-81" target="8kIhBD2BF5X6gOVt8awM-82" edge="1"><mxGeometry x="0.5" y="41" relative="1" as="geometry"><mxPoint x="50" y="154" as="sourcePoint"/><mxPoint x="220" y="150" as="targetPoint"/><mxPoint x="-40" y="32" as="offset"/></mxGeometry></mxCell><mxCell id="8kIhBD2BF5X6gOVt8awM-95" value="1" style="resizable=0;align=left;verticalAlign=bottom;labelBackgroundColor=none;fontSize=12;" parent="8kIhBD2BF5X6gOVt8awM-94" connectable="0" vertex="1"><mxGeometry x="-1" relative="1" as="geometry"><mxPoint y="-4" as="offset"/></mxGeometry></mxCell><mxCell id="8kIhBD2BF5X6gOVt8awM-96" value="*" style="resizable=0;align=right;verticalAlign=bottom;labelBackgroundColor=none;fontSize=12;" parent="8kIhBD2BF5X6gOVt8awM-94" connectable="0" vertex="1"><mxGeometry x="1" relative="1" as="geometry"><mxPoint x="-7" y="4" as="offset"/></mxGeometry></mxCell><mxCell id="8kIhBD2BF5X6gOVt8awM-97" value="" style="endArrow=open;shadow=0;strokeWidth=1;rounded=0;endFill=1;elbow=vertical;exitX=0;exitY=0.5;exitDx=0;exitDy=0;" parent="WIyWlLk6GJQsqaUBKTNV-1" source="8kIhBD2BF5X6gOVt8awM-68" edge="1"><mxGeometry x="0.5" y="41" relative="1" as="geometry"><mxPoint x="-210.78" y="61.69" as="sourcePoint"/><mxPoint x="-400" y="-160" as="targetPoint"/><mxPoint x="-40" y="32" as="offset"/></mxGeometry></mxCell><mxCell id="8kIhBD2BF5X6gOVt8awM-98" value="1" style="resizable=0;align=left;verticalAlign=bottom;labelBackgroundColor=none;fontSize=12;" parent="8kIhBD2BF5X6gOVt8awM-97" connectable="0" vertex="1"><mxGeometry x="-1" relative="1" as="geometry"><mxPoint y="-4" as="offset"/></mxGeometry></mxCell><mxCell id="8kIhBD2BF5X6gOVt8awM-99" value="1" style="resizable=0;align=right;verticalAlign=bottom;labelBackgroundColor=none;fontSize=12;" parent="8kIhBD2BF5X6gOVt8awM-97" connectable="0" vertex="1"><mxGeometry x="1" relative="1" as="geometry"><mxPoint x="-7" y="4" as="offset"/></mxGeometry></mxCell></root></mxGraphModel></diagram></mxfile>